#!OML:ASF I:\Random Stuff\random\construction\7_22_03\Session 2\subj1.ASF
:FULLY-SPECIFIED
:DEGREES
570
root -8.41512 17.4297 0.00403559 -134.759 78.2183 -158.974
lowerback 24.5079 5.15045 -1.19549
upperback 6.04948 6.52894 -5.31833
thorax -6.32425 3.41153 -7.09721
lowerneck -23.173 9.27179 3.40007
upperneck 33.9308 21.2128 -14.8084
head 19.3612 7.3 -2.24211
rclavicle -9.58142e-014 -4.17448e-015
rhumerus 9.96351 51.4537 -76.38
rradius 112.585
rwrist -19.4369
rhand -29.0326 32.0224
rfingers 7.12502
rthumb -2.38316 2.05597
lclavicle -9.58142e-014 -4.17448e-015
lhumerus 28.1545 -12.2222 57.1018
lradius 34.5844
lwrist 10.4723
lhand -38.3378 74.7796
lfingers 7.12502
lthumb -11.365 -104.452
rfemur -19.6225 3.03217 11.8258
rtibia 11.1919
rfoot -5.76212 -22.0915
rtoes -21.6704
lfemur -47.4998 1.11096 -6.17244
ltibia 31.7707
lfoot -9.45631 -1.48593
ltoes -30.2175
571
root -8.4182 17.426 0.00507651 -134.861 78.3627 -159.039
lowerback 24.5739 5.06112 -1.39784
upperback 6.10816 6.37319 -5.2047
thorax -6.34464 3.33772 -6.81549
lowerneck -23.2912 9.41426 3.15737
upperneck 33.7356 21.6045 -15.0576
head 19.3638 7.39031 -2.19926
rclavicle 7.4743e-014 1.72943e-014
rhumerus 9.90734 51.5562 -76.0849
rradius 113.118
rwrist -19.8176
rhand -29.2845 32.7275
rfingers 7.12502
rthumb -2.62649 2.7639
lclavicle 7.4743e-014 1.72943e-014
lhumerus 27.9489 -11.5246 57.2262
lradius 34.4144
lwrist 10.3808
lhand -38.1899 74.8102
lfingers 7.12502
lthumb -11.2225 -104.49
rfemur -19.7786 2.99627 11.7295
rtibia 11.4896
rfoot -5.9161 -21.9466
rtoes -21.7846
lfemur -47.4612 1.18 -6.28444
ltibia 31.8335
lfoot -9.50841 -1.48743
ltoes -30.4389
572
root -8.42295 17.4209 0.00588135 -134.735 78.5144 -158.898
lowerback 24.7108 5.13131 -1.31834
upperback 6.1122 6.47459 -5.28445
thorax -6.37955 3.38698 -6.99442
lowerneck -23.3264 9.40336 3.34356
upperneck 33.599 21.5595 -15.2694
head 19.3624 7.37764 -2.33183
rclavicle 1.59028e-015 8.24956e-014
rhumerus 8.49952 50.6862 -76.5756
rradius 114.057
rwrist -20.3323
rhand -29.1406 33.8911
rfingers 7.12502
rthumb -2.48754 3.92589
lclavicle 1.59028e-015 8.24956e-014
lhumerus 28.2123 -11.4793 57.0562
lradius 34.1656
lwrist 10.3631
lhand -38.0249 74.5254
lfingers 7.12502
lthumb -11.0633 -104.214
rfemur -19.9826 2.90164 11.6762
rtibia 11.778
rfoot -6.15929 -21.6982
rtoes -21.6608
lfemur -47.4406 1.18165 -6.30684
ltibia 31.8975
lfoot -9.57154 -1.37171
ltoes -30.801
573
root -8.42968 17.4173 0.00606704 -134.551 78.6738 -158.721
lowerback 24.8114 5.20954 -1.27111
upperback 6.15084 6.58622 -5.30557
thorax -6.3673 3.44294 -7.0853
lowerneck -23.399 9.4232 3.43656
upperneck 33.4934 21.6323 -15.4937
head 19.3992 7.39329 -2.42251
rclavicle -4.92986e-014 1.98785e-015
rhumerus 6.43615 49.7496 -77.0418
rradius 115.318
rwrist -20.8947
rhand -29.2366 35.3782
rfingers 7.12502
rthumb -2.5802 5.41407
lclavicle -4.92986e-014 1.98785e-015
lhumerus 28.5586 -11.2496 56.9484
lradius 33.7712
lwrist 10.0324
lhand -37.7266 74.2429
lfingers 7.12502
lthumb -10.7755 -103.947
rfemur -20.2368 2.78689 11.6316
rtibia 12.101
rfoot -6.48124 -21.4764
rtoes -21.32
lfemur -47.4387 0.990852 -6.19865
ltibia 31.9645
lfoot -9.64242 -1.04116
ltoes -30.717
574
root -8.43836 17.416 0.00588538 -134.471 78.8404 -158.689
lowerback 24.8474 5.07195 -1.4035
upperback 6.30252 6.39903 -5.16151
thorax -6.26912 3.36015 -6.7875
lowerneck -23.612 9.6548 3.12033
upperneck 33.0673 22.2295 -15.9829
head 19.3748 7.53138 -2.40599
rclavicle -1.31198e-014 5.76476e-015
rhumerus 5.19016 49.534 -76.6616
rradius 116.475
rwrist -21.1266
rhand -30.3343 36.652
rfingers 7.12502
rthumb -3.6403 6.70331
lclavicle -1.31198e-014 5.76476e-015
lhumerus 28.6274 -10.0022 57.0536
lradius 33.1855
lwrist 9.11124
lhand -37.4979 73.8294
lfingers 7.12502
lthumb -10.555 -103.544
rfemur -20.5545 2.67893 11.5505
rtibia 12.4702
rfoot -6.7482 -21.3054
rtoes -21.1938
lfemur -47.4912 0.800475 -6.12264
ltibia 32.0352
lfoot -9.65038 -0.706026
ltoes -30.5165
575
root -8.44789 17.4143 0.00637577 -134.05 79.11 -158.365
lowerback 24.8304 4.818 -1.65271
upperback 6.37509 6.02466 -4.99233
thorax -6.26258 3.18006 -6.34334
lowerneck -23.4783 9.9947 2.8682
upperneck 32.2896 23.0034 -16.8204
head 19.1825 7.75646 -2.50884
rclavicle 1.05753e-013 -9.06458e-014
rhumerus 4.34348 49.7119 -76.0743
rradius 117.355
rwrist -21.0568
rhand -31.832 37.3415
rfingers 7.12502
rthumb -5.08654 7.42252
lclavicle 1.05753e-013 -9.06458e-014
lhumerus 28.2755 -7.88602 57.4872
lradius 32.3516
lwrist 7.64399
lhand -37.3627 73.0534
lfingers 7.12502
lthumb -10.4245 -102.775
rfemur -21.0023 2.47643 11.4817
rtibia 12.8846
rfoot -6.88192 -20.9665
rtoes -21.6453
lfemur -47.586 0.811553 -6.13262
ltibia 32.116
lfoot -9.63848 -0.465217
ltoes -30.4845
